<svg width="158" height="350" fill="none" xmlns="http://www.w3.org/2000/svg"><rect width="158" height="350" rx="79" fill="#fff" fill-opacity=".41"/><circle cx="79" cy="261" r="60" fill="#FDB813"/><g clip-path="url('#clip0_174_127')" stroke="#000" stroke-width="4" stroke-linecap="round" stroke-linejoin="round"><path d="M59.167 263.835a5.665 5.665 0 0 1 5.667-5.667h28.333a5.666 5.666 0 0 1 5.667 5.667v17a5.667 5.667 0 0 1-5.667 5.666H64.834a5.67 5.67 0 0 1-5.667-5.666v-17Z"/><path d="M76.167 272.333a2.835 2.835 0 1 0 5.67 0 2.835 2.835 0 0 0-5.67 0ZM67.667 258.167v-11.334A11.336 11.336 0 0 1 79 235.5a11.335 11.335 0 0 1 11.334 11.333v11.334"/></g><defs><clipPath id="clip0_174_127"><path fill="#fff" transform="translate(45 227)" d="M0 0h68v68H0z"/></clipPath></defs></svg>